<svg width="511.76" height="498.97" xmlns="http://www.w3.org/2000/svg">

 <title>adobe-photoshop</title>
 <g>
  <title>Layer 1</title>
  <rect id="svg_1" fill="#84dccf" rx="90.62" height="498.97" width="511.76" class="a"/>
  <path id="svg_2" fill="#ff5d73" d="m115.24,349.91l0,-219.38c0,-1.59 0.68,-2.4 2.06,-2.4c3.65,0 7,0 12,-0.17s10.47,-0.23 16.31,-0.34l18.54,-0.35q9.78,-0.17 19.39,-0.17q26.09,0 44,6.52a76.4,76.4 0 0 1 28.66,17.51a67.06,67.06 0 0 1 15.62,24.21a80.31,80.31 0 0 1 4.79,27.66q0,27.48 -12.7,45.32a71.82,71.82 0 0 1 -34.33,25.92c-14.42,5.38 -30.45,7.2 -48.07,7.2c-5,0 -8.58,-0.05 -10.64,-0.17s-5.15,-0.17 -9.27,-0.17l0,68.49a2.72,2.72 0 0 1 -2.32,3.09a2.49,2.49 0 0 1 -0.77,0l-40.87,0c-1.64,-0.03 -2.4,-0.94 -2.4,-2.77zm46.36,-180.58l0,71.55q4.46,0.35 8.24,0.34l11.33,0a80.56,80.56 0 0 0 24.55,-3.92a37,37 0 0 0 17.51,-11.3q6.69,-7.89 6.69,-22a34.74,34.74 0 0 0 -5,-18.88a32,32 0 0 0 -14.92,-12.19a63.68,63.68 0 0 0 -25,-4.29q-8.25,0 -14.59,0.17t-8.76,0.52l-0.05,0z" class="b"/>
  <path id="svg_3" fill="#ff5d73" d="m409.35,227.87a80,80 0 0 0 -20.43,-7.21a108.28,108.28 0 0 0 -23.86,-2.75a44.38,44.38 0 0 0 -12.87,1.55a11.55,11.55 0 0 0 -6.7,4.29a10.79,10.79 0 0 0 -1.71,5.84a9.08,9.08 0 0 0 2.06,5.49a23.25,23.25 0 0 0 7.21,5.66a141.8,141.8 0 0 0 15.1,7a150,150 0 0 1 32.79,15.62a50,50 0 0 1 16.82,17.68a47.17,47.17 0 0 1 5,22a49.41,49.41 0 0 1 -8.24,28.33a54.23,54.23 0 0 1 -23.86,19.05q-15.66,6.88 -38.66,6.88a140.51,140.51 0 0 1 -29,-2.75a92.44,92.44 0 0 1 -21.8,-6.87a4.44,4.44 0 0 1 -2.41,-4.12l0,-37.07a2,2 0 0 1 0.86,-1.89a1.66,1.66 0 0 1 1.89,0.17a91.62,91.62 0 0 0 26.46,10.47a108.66,108.66 0 0 0 25.07,3.26q12,0 17.68,-3.09a9.7,9.7 0 0 0 5.66,-8.92q0,-4.47 -5.15,-8.59t-20.96,-9.9a126.06,126.06 0 0 1 -30.38,-15.45a52.42,52.42 0 0 1 -16.14,-18a47.35,47.35 0 0 1 -5,-21.8a49.21,49.21 0 0 1 7.22,-25.82a52.37,52.37 0 0 1 22.32,-19.57q15.1,-7.55 37.76,-7.55a167.13,167.13 0 0 1 26.44,1.88a69.58,69.58 0 0 1 18.4,5a3.13,3.13 0 0 1 2.06,1.89a9.31,9.31 0 0 1 0.34,2.57l0,34.68a2.3,2.3 0 0 1 -1,2.06a3.33,3.33 0 0 1 -2.97,-0.02z" class="b"/>
 </g>
</svg>