<?xml version="1.0" encoding="utf-8"?>
<!-- Generator: Adobe Illustrator 27.1.0, SVG Export Plug-In . SVG Version: 6.00 Build 0)  -->
<svg version="1.1" id="Layer_1" xmlns="http://www.w3.org/2000/svg" xmlns:xlink="http://www.w3.org/1999/xlink" x="0px" y="0px"
	 viewBox="0 0 122.9 108.1" style="enable-background:new 0 0 122.9 108.1;" xml:space="preserve">
<style type="text/css">
	.st0{fill-rule:evenodd;clip-rule:evenodd;fill:#84DCCF;}
</style>
<g>
	<path class="st0" d="M15.6,12.8V77h91.6V12.8H15.6L15.6,12.8z M24.5,65.9c-1,0-1.8-0.8-1.8-1.8c0-1,0.8-1.8,1.8-1.8h11.1V36.2
		c0-0.2,0.1-0.4,0.2-0.5c0,0,0.1,0,0.1-0.1c0.1-0.1,0.3-0.1,0.4-0.1h5.6c0.2,0,0.4,0.1,0.5,0.2c0,0,0.1,0.1,0.1,0.1
		c0.1,0.1,0.1,0.3,0.1,0.4v26.2h7.9V44c0-0.2,0.1-0.4,0.2-0.5c0.1-0.1,0.3-0.2,0.5-0.2h5.6c0.2,0,0.4,0.1,0.5,0.2
		c0.1,0.1,0.2,0.3,0.2,0.5v18.4h7.9v-34c0-0.2,0.1-0.4,0.2-0.5c0.1-0.1,0.3-0.2,0.5-0.2h5.6c0.2,0,0.4,0.1,0.5,0.2l0,0
		c0.1,0.1,0.2,0.3,0.2,0.5v34h7.9V38.5c0-0.2,0.1-0.4,0.2-0.5l0,0c0.1-0.1,0.3-0.2,0.5-0.2h5.6c0.2,0,0.4,0.1,0.5,0.2l0,0l0,0
		c0.1,0.1,0.2,0.3,0.2,0.5v23.9h7.7c1,0,1.8,0.8,1.8,1.8c0,1-0.8,1.8-1.8,1.8L24.5,65.9L24.5,65.9z M58.7,91
		c0.2-0.2,0.4-0.3,0.6-0.4v-9.1H2.2c-1.2,0-2.2-1-2.2-2.2C0,78,1,77,2.2,77h8.9V12.8H2.2c-1.2,0-2.2-1-2.2-2.2c0-1.2,1-2.2,2.2-2.2
		H59v-6C59,1.1,60,0,61.3,0s2.3,1,2.3,2.3v6h56.8c1.2,0,2.2,1,2.2,2.2s-1,2.2-2.2,2.2h-8.8V77h9c1.2,0,2.2,1,2.2,2.2s-1,2.2-2.2,2.2
		H64v9.3c0.1,0.1,0.1,0.1,0.2,0.2l13.1,12.4c0.9,0.9,1,2.4,0.1,3.3c-0.9,0.9-2.4,1-3.3,0.1L64,97.2v8.5c0,1.3-1,2.3-2.3,2.3
		s-2.3-1.1-2.3-2.3v-8.9l-10.5,10c-0.9,0.9-2.4,0.8-3.3-0.1c-0.9-0.9-0.8-2.4,0.1-3.3L58.7,91L58.7,91z"/>
</g>
</svg>
