<?xml version="1.0" encoding="utf-8"?>
<!-- Generator: Adobe Illustrator 27.1.0, SVG Export Plug-In . SVG Version: 6.00 Build 0)  -->
<svg version="1.1" id="Layer_1" xmlns="http://www.w3.org/2000/svg" xmlns:xlink="http://www.w3.org/1999/xlink" x="0px" y="0px"
	 viewBox="0 0 116 122.9" style="enable-background:new 0 0 116 122.9;" xml:space="preserve">
<style type="text/css">
	.st0{fill:#36CCB2;}
</style>
<path class="st0" d="M17.4,0h59.3c9.6,0,17.4,7.8,17.4,17.4v38.3c0,9.6-7.8,17.4-17.4,17.4H47.2l-26,22.4c-1.3,1.1-3.3,1-4.4-0.3
	c-0.5-0.6-0.8-1.4-0.8-2.2l1.4-19.8C7.8,73,0,65.3,0,55.7V17.4C0,7.8,7.8,0,17.4,0z M66.6,31.1c3.3,0,6,2.7,6,6s-2.7,6-6,6
	c-3.3,0-6-2.7-6-6S63.3,31.1,66.6,31.1z M47.1,31.1c3.3,0,6,2.7,6,6s-2.7,6-6,6s-6-2.7-6-6S43.8,31.1,47.1,31.1z M27.5,31.1
	c3.3,0,6,2.7,6,6s-2.7,6-6,6s-6-2.7-6-6S24.2,31.1,27.5,31.1z M102.3,28.1c7.9,1.5,13.6,8.5,13.7,16.5V83
	c-0.1,9.3-7.6,16.7-16.8,16.8h-0.6l1.4,20.4l0,0c0,0.7-0.2,1.3-0.6,1.8c-0.9,1.1-2.5,1.2-3.6,0.3L69.6,99.1H35.2l17-17.3h36
	c7.9,0,14.2-6.4,14.3-14.3V29.3c0-0.4,0-0.8,0-1.1L102.3,28.1z M76.8,6.2H17.4c-6.2,0-11.1,5-11.1,11.1v38.3c0,6.2,5,11.1,11.1,11.2
	h3.5c1.7,0.1,3,1.6,2.9,3.3l-1.1,15.7l21.1-18.1c0.6-0.6,1.4-0.9,2.2-0.9h30.7c6.1,0,11.1-5,11.2-11.1V17.4
	C87.9,11.3,82.9,6.3,76.8,6.2z"/>
</svg>
