<?xml version="1.0" encoding="utf-8"?>
<!-- Generator: Adobe Illustrator 27.1.0, SVG Export Plug-In . SVG Version: 6.00 Build 0)  -->
<svg version="1.1" id="Layer_1" xmlns="http://www.w3.org/2000/svg" xmlns:xlink="http://www.w3.org/1999/xlink" x="0px" y="0px"
	 viewBox="0 0 122.9 109.8" style="enable-background:new 0 0 122.9 109.8;" xml:space="preserve">
<style type="text/css">
	.st0{fill:url(#SVGID_1_);}
	.st1{fill:url(#SVGID_00000138551543395687708700000003562598298409000120_);}
	.st2{fill:url(#SVGID_00000171714550473090385990000012940540171539515031_);}
</style>
<linearGradient id="SVGID_1_" gradientUnits="userSpaceOnUse" x1="45.7404" y1="29.071" x2="-10.2596" y2="120.071">
	<stop  offset="0" style="stop-color:#84DCCF"/>
	<stop  offset="1" style="stop-color:#2DBCCF"/>
</linearGradient>
<path class="st0" d="M42.1,1.7c-1.9,1.1-3.5,2.7-4.7,4.7L1.7,68.3C0.6,70.2,0,72.4,0,74.6s0.6,4.4,1.7,6.3l7.6,13.2l5.4,9.4
	c1.1,2,2.7,3.5,4.7,4.6l19.3-33.5l22.7-39.4L42.1,1.7z"/>
<linearGradient id="SVGID_00000014599096819197394950000007983372760618736814_" gradientUnits="userSpaceOnUse" x1="19.3" y1="92.2" x2="122.9" y2="92.2">
	<stop  offset="0" style="stop-color:#84DCCF"/>
	<stop  offset="1" style="stop-color:#2DBCCF"/>
</linearGradient>
<path style="fill:url(#SVGID_00000014599096819197394950000007983372760618736814_);" d="M84.2,74.6H38.7l-19.4,33.5
	c1.9,1.1,4.1,1.7,6.3,1.7h71.5c2.2,0,4.4-0.6,6.3-1.7l-0.8-1.5l0.9,1.5c1.9-1.1,3.5-2.7,4.7-4.6l2.2-3.9l10.8-18.7
	c1.1-2,1.7-4.2,1.7-6.3H84.2z"/>
<linearGradient id="SVGID_00000044873592004275685700000005630335708142026138_" gradientUnits="userSpaceOnUse" x1="42.2" y1="37.3" x2="122.8" y2="37.3">
	<stop  offset="0" style="stop-color:#30BDCF"/>
	<stop  offset="1" style="stop-color:#84DCCF"/>
</linearGradient>
<path style="fill:url(#SVGID_00000044873592004275685700000005630335708142026138_);" d="M121.1,68.3l-17.8-31l-17.9-31
	c-1.1-2-2.7-3.5-4.6-4.7l0,0.1C78.9,0.6,76.7,0,74.5,0h-26c-2.2,0-4.4,0.6-6.3,1.7l19.2,33.5h0.1l22.7,39.4h38.6
	C122.8,72.4,122.2,70.2,121.1,68.3z"/>
</svg>
