<?xml version="1.0" encoding="utf-8"?>
<!-- Generator: Adobe Illustrator 27.1.0, SVG Export Plug-In . SVG Version: 6.00 Build 0)  -->
<svg version="1.1" id="Layer_1" xmlns="http://www.w3.org/2000/svg" xmlns:xlink="http://www.w3.org/1999/xlink" x="0px" y="0px"
	 viewBox="0 0 108.5 122.9" style="enable-background:new 0 0 108.5 122.9;" xml:space="preserve">
<style type="text/css">
	.st0{fill:#84DCCF;}
</style>
<path class="st0" d="M53,79.2L16.3,59.9L6.5,71.8c13.2,7,25.7,13.7,38.9,20.7C45.3,92.5,53,79.2,53,79.2z M59.8,57.7
	c-0.6,1-1.4,1.8-2.4,2.4c-0.8,0.5-1.8,0.8-2.7,0.8c-1,0.1-1.9-0.1-2.8-0.5c-0.6-0.3-1.2-0.7-1.7-1.2L59.8,57.7z M43.8,40.9
	c-1.6-1.7-3-3.7-4.1-5.8c-1.2-2.4-1.8-5-1.8-7.6c0.1-2.9,0.8-5.7,2.2-8.2v0l0,0c1.7-3,4.4-5.3,7.5-6.6c2.5-1,5.2-1.4,7.9-1.1
	c2.6,0.2,5.2,1.1,7.5,2.4c2.9,1.7,5.2,4.3,6.5,7.4c0.8,1.8,1.2,3.8,1.2,5.8c0.1,2.3-0.4,4.6-1.3,6.8c-1.5,3.7-5,7.6-7.2,11.2
	c-0.1,0-0.3,0-0.4,0l-3.1,0.5c7-24.5,4.7-22.5-1.9,0.3l-4.6,0.7l-4.1-13.2L47,29.5l-0.3-1c-0.1-0.5-0.6-0.7-1.1-0.6S44.9,28.5,45,29
	l0,0l5.6,17.8l-3.4,0.5C46.5,44.9,45.3,42.8,43.8,40.9L43.8,40.9z M53.9,1.9c0-0.5,0.2-1,0.6-1.4C54.9,0.2,55.4,0,55.9,0H56
	c0.5,0,0.9,0.3,1.3,0.6C57.6,1,57.8,1.5,57.8,2l0,0c0,0,0,0.1,0,0.1l-0.1,4.1l0,0v0.1c-0.1,1-1,1.8-2,1.8h-0.1c-1-0.1-1.8-1-1.8-2
	l0,0V6.1L53.9,1.9L53.9,1.9z M32.8,9.2c-0.4-0.4-0.6-0.8-0.6-1.4c0-0.5,0.2-1,0.5-1.4c0.4-0.4,0.8-0.6,1.3-0.6c0.5,0,1,0.2,1.4,0.5
	l3.1,2.9c0.8,0.7,0.9,1.9,0.2,2.7c0,0,0,0-0.1,0.1c-0.4,0.4-0.8,0.6-1.3,0.6c-0.5,0-1-0.2-1.4-0.6L32.8,9.2z M27.8,30.6
	c-0.5,0-1-0.2-1.4-0.6c-0.8-0.7-0.8-2-0.1-2.7c0.4-0.4,0.8-0.6,1.4-0.6l4.2-0.1c0.5,0,1,0.2,1.4,0.5c0.4,0.4,0.6,0.8,0.6,1.4l0,0
	l0,0v0.1c0,0.5-0.2,0.9-0.5,1.3c-0.3,0.4-0.8,0.6-1.3,0.6h0L27.8,30.6L27.8,30.6z M80.6,24.6L80.6,24.6c1.1,0,2,0.7,2.1,1.7l0,0
	c0,0,0,0.1,0,0.1c0.1,1-0.7,1.9-1.7,2l-4.2,0.4c-0.5,0.1-1-0.1-1.4-0.4c-0.4-0.3-0.7-0.8-0.7-1.3c0-0.5,0.1-1,0.4-1.4
	c0.3-0.4,0.8-0.7,1.3-0.7C77.8,24.9,79.2,24.7,80.6,24.6L80.6,24.6z M72.3,7.6c0.6-0.9,1.8-1.1,2.7-0.5l0,0c0.4,0.3,0.7,0.7,0.8,1.2
	c0.1,0.5,0,1-0.3,1.5l-2.4,3.5c-0.6,0.9-1.8,1.1-2.7,0.5c0,0,0,0,0,0c-0.4-0.3-0.7-0.7-0.8-1.2c-0.1-0.5,0-1,0.3-1.5L72.3,7.6
	L72.3,7.6z M61.2,47.5L60.9,49l-0.1,1l-12.6,1.9c0-0.8-0.2-1.6-0.3-2.4L61.2,47.5L61.2,47.5z M60.8,52.3v0.6v0.2c0,0.4,0,0.8,0,1.2
	l-0.2,0.9L48.9,57l-0.2-0.5l-0.5-1.9v-0.5L60.8,52.3L60.8,52.3z M39.2,47.8L18.7,58L55,77.1L91.4,58L70.5,47h-0.1l0.9-1.3l0.8-1
	l20.7,10.6l11.4-10.9L86,34.6c0.9-0.6,1.7-1.3,2.3-2.1l0.1-0.1l19.4,10.3c0.1,0.1,0.2,0.2,0.3,0.2c0.6,0.5,0.6,1.4,0,2c0,0,0,0,0,0
	L95.6,57.2l12.1,14.5c0.5,0.6,0.4,1.5-0.1,2c0,0,0,0,0,0c-0.1,0.1-0.2,0.1-0.3,0.2l-10.9,5.7v21.5c0,0.6-0.3,1.1-0.9,1.3l-39.3,20
	c-0.5,0.6-1.4,0.6-2,0.1c-0.1-0.1-0.2-0.3-0.3-0.4l-39.4-19.7c-0.5-0.2-0.8-0.7-0.8-1.2V79.7L2.7,73.9c-0.1-0.1-0.2-0.1-0.3-0.2
	c-0.6-0.5-0.7-1.4-0.2-2c0,0,0,0,0,0L14,57.6l-13.7-13c-0.5-0.6-0.5-1.4,0.1-2c0,0,0,0,0,0c0.1-0.1,0.2-0.1,0.3-0.2l18-10.2l0.1,0.3
	c0.4,0.9,1,1.7,1.6,2.4L4.2,44.3l12.5,11.5l20.9-10.4l0.5,0.5c0.3,0.4,0.7,0.9,0.9,1.4L39.2,47.8z M94,59.7L56.9,79.2l7.8,13.4
	l39-21.2L94,59.7z"/>
</svg>
