<?xml version="1.0" encoding="utf-8"?>
<!-- Generator: Adobe Illustrator 27.1.0, SVG Export Plug-In . SVG Version: 6.00 Build 0)  -->
<svg version="1.1" id="Layer_1" xmlns="http://www.w3.org/2000/svg" xmlns:xlink="http://www.w3.org/1999/xlink" x="0px" y="0px"
	 viewBox="0 0 111.4 122.9" style="enable-background:new 0 0 111.4 122.9;" xml:space="preserve">
<style type="text/css">
	.st0{fill:#84DCCF;}
</style>
<g>
	<path class="st0" d="M41,11c0.5-0.1,1.1-0.2,1.6-0.2c0.8,0,1.5,0.1,2.2,0.4c0.7,0.3,1.3,0.7,1.9,1.2c0.5,0.5,1,1.1,1.2,1.8
		c0.3,0.6,0.4,1.4,0.4,2.1l0,0v2.6h10.5c2.5-3.7,6.6-7.9,9.4-10.8c0.9-0.9,1.7-1.7,2.2-2.3v0c0,0,0,0,0.1-0.1c1-1.3,2.2-2.2,3.3-2.6
		c1.3-0.6,2.5-0.6,3.6-0.3c0.4,0.1,0.9,0.3,1.2,0.5c0.4,0.2,0.8,0.5,1.1,0.8c0.3,0.3,0.6,0.7,0.8,1.1C80.7,5.6,80.8,6,81,6.5
		c0.3,1.1,0.3,2.3,0,3.6c-0.3,1.1-0.9,2.3-1.9,3.4l0,0c-0.1,0.2-0.4,0.4-0.7,0.8l-0.5,0.6H78c0.2,0,0.4,0,0.6,0c0.2,0,0.4,0,0.6,0.1
		h21.9c0.7,0,1.4,0.2,2,0.4c0.6,0.3,1.2,0.7,1.7,1.3c0.5,0.5,0.9,1.2,1.1,1.9c0.2,0.7,0.4,1.4,0.4,2.2c0,0.6-0.1,1.1-0.2,1.7
		c-0.1,0.3-0.2,0.5-0.3,0.8h0.2c0.7,0,1.4,0.2,2,0.4c0.6,0.3,1.2,0.7,1.7,1.3s0.8,1.2,1.1,1.9c0.2,0.7,0.4,1.4,0.4,2.2
		s-0.1,1.5-0.4,2.2c-0.3,0.7-0.6,1.3-1.1,1.9c-0.5,0.5-1.1,1-1.7,1.3c-0.6,0.3-1.3,0.4-2,0.4l0,0h-0.2c0.1,0.2,0.2,0.5,0.3,0.8
		c0.2,0.5,0.2,1.1,0.2,1.7v0c0,0.8-0.1,1.5-0.4,2.2c-0.3,0.7-0.6,1.3-1.1,1.9c-0.5,0.5-1.1,1-1.7,1.3c-0.6,0.3-1.3,0.4-2,0.4h-0.4
		c0.1,0.2,0.2,0.5,0.2,0.7c0.1,0.5,0.2,1.1,0.2,1.6v0c0,0.8-0.1,1.5-0.4,2.2c-0.3,0.7-0.6,1.3-1.1,1.9c-0.5,0.5-1.1,1-1.7,1.3
		c-0.6,0.3-1.3,0.4-2,0.4h-0.8v16.7c3.7,2.7,7.9,7.1,10.8,10c0.9,0.9,1.7,1.8,2.3,2.3l0,0c0,0,0,0,0.1,0.1c1.3,1.1,2.1,2.3,2.6,3.5
		c0.6,1.3,0.6,2.7,0.3,3.8c-0.1,0.5-0.3,0.9-0.5,1.3c-0.2,0.4-0.5,0.8-0.8,1.1c-0.3,0.3-0.7,0.7-1.1,0.9s-0.8,0.4-1.3,0.6
		c-1.1,0.3-2.3,0.3-3.6,0c-1.1-0.3-2.3-1-3.4-2.1c-0.2-0.2-0.5-0.4-0.8-0.8l-0.5-0.5V88c0,0.2,0,0.4,0,0.7c0,0.2,0,0.4-0.1,0.6v22.8
		c0,0.7-0.2,1.5-0.4,2.1c-0.3,0.7-0.7,1.3-1.2,1.8s-1.2,0.9-1.9,1.2c-0.7,0.3-1.4,0.4-2.2,0.4c-0.6,0-1.1-0.1-1.7-0.2
		c-0.3-0.1-0.5-0.2-0.8-0.3v0.2c0,0.7-0.2,1.5-0.4,2.1c-0.3,0.7-0.7,1.3-1.2,1.8s-1.2,0.9-1.9,1.2c-0.7,0.3-1.4,0.4-2.2,0.4
		s-1.5-0.2-2.2-0.4c-0.7-0.3-1.3-0.7-1.9-1.2c-0.5-0.5-1-1.1-1.2-1.8c-0.3-0.7-0.4-1.4-0.4-2.1l0,0v-0.2c-0.2,0.1-0.5,0.2-0.7,0.3
		l0,0c-0.6,0.2-1.1,0.2-1.7,0.2h0c-0.8,0-1.5-0.2-2.2-0.4c-0.7-0.3-1.3-0.7-1.9-1.2c-0.5-0.5-1-1.1-1.2-1.8
		c-0.3-0.7-0.4-1.4-0.4-2.1v-0.5c-0.2,0.1-0.5,0.2-0.7,0.3c-0.5,0.2-1.1,0.2-1.6,0.2c-0.8,0-1.5-0.2-2.2-0.4
		c-0.7-0.3-1.3-0.7-1.9-1.2c-0.5-0.5-1-1.1-1.2-1.8c-0.3-0.7-0.4-1.4-0.4-2.1l0,0v-2.6H52.7c-2.5,3.7-6.6,7.9-9.4,10.8
		c-0.9,0.9-1.7,1.7-2.2,2.3l-0.1,0.1c-1,1.3-2.2,2.1-3.2,2.6c-1.3,0.6-2.5,0.6-3.6,0.3c-0.4-0.1-0.9-0.3-1.2-0.5
		c-0.4-0.2-0.8-0.5-1.1-0.8c-0.3-0.3-0.6-0.7-0.8-1.1l0,0c-0.2-0.4-0.4-0.8-0.5-1.3c-0.3-1.1-0.3-2.3,0-3.6c0.3-1.1,0.9-2.3,1.9-3.4
		l0,0c0.1-0.2,0.4-0.4,0.7-0.8l0.5-0.6h-0.2c-0.2,0-0.4,0-0.6,0c-0.2,0-0.4,0-0.6-0.1H10.1c-0.7,0-1.4-0.2-2-0.4
		c-0.6-0.3-1.2-0.7-1.7-1.3s-0.9-1.2-1.1-1.9c-0.2-0.7-0.4-1.4-0.4-2.2c0-0.6,0.1-1.1,0.2-1.7c0.1-0.3,0.2-0.5,0.3-0.8H5.2
		c-0.7,0-1.4-0.2-2-0.4C2.6,99,2,98.6,1.5,98.1s-0.9-1.2-1.1-1.9C0.1,95.5,0,94.8,0,94s0.1-1.5,0.4-2.2C0.6,91.2,1,90.5,1.5,90
		c0.5-0.5,1-1,1.7-1.3c0.6-0.3,1.3-0.4,2-0.4l0,0h0.2c-0.1-0.2-0.2-0.5-0.3-0.8c-0.2-0.6-0.2-1.1-0.2-1.7v0c0-0.8,0.1-1.5,0.4-2.2
		c0.3-0.7,0.6-1.3,1.1-1.9c0.5-0.5,1-1,1.7-1.3c0.6-0.3,1.3-0.4,2-0.4h0.4c-0.1-0.2-0.2-0.5-0.2-0.7l0,0c-0.1-0.5-0.2-1.1-0.2-1.6v0
		c0-0.8,0.1-1.5,0.4-2.2c0.3-0.7,0.6-1.3,1.1-1.9c0.5-0.5,1.1-1,1.7-1.3c0.6-0.3,1.3-0.4,2-0.4h1.1V55.3c-3.7-2.7-7.9-7.1-10.8-10
		c-0.9-1-1.7-1.8-2.3-2.3l0,0c-1.3-1.1-2.1-2.3-2.6-3.5c-0.6-1.3-0.6-2.7-0.3-3.8c0.1-0.5,0.3-0.9,0.5-1.3c0.2-0.4,0.5-0.8,0.8-1.1
		c0.3-0.3,0.7-0.7,1.1-0.9C3,32,3.4,31.8,3.9,31.6c1.1-0.3,2.3-0.4,3.6,0c1.1,0.3,2.3,1,3.4,2.1c0.2,0.2,0.5,0.4,0.8,0.8l0.5,0.5
		v-0.2c0-0.2,0-0.4,0-0.7c0-0.2,0-0.4,0.1-0.6V10.8c0-0.7,0.2-1.5,0.4-2.1c0.3-0.7,0.7-1.3,1.2-1.8s1.2-0.9,1.9-1.2
		c0.7-0.3,1.4-0.4,2.2-0.4c0.6,0,1.1,0.1,1.7,0.2c0.3,0.1,0.5,0.2,0.8,0.3V5.5c0-0.7,0.2-1.5,0.4-2.1c0.3-0.7,0.7-1.3,1.2-1.8
		s1.2-0.9,1.9-1.2C24.8,0.2,25.5,0,26.3,0c0.8,0,1.5,0.2,2.2,0.4c0.7,0.3,1.3,0.7,1.9,1.2c0.5,0.5,1,1.1,1.2,1.8
		C31.9,4.1,32,4.8,32,5.5l0,0v0.2c0.2-0.1,0.5-0.2,0.8-0.3c0.5-0.2,1.1-0.3,1.7-0.3h0c0.8,0,1.5,0.2,2.2,0.4
		c0.7,0.3,1.3,0.7,1.9,1.2c0.5,0.5,1,1.1,1.2,1.8c0.3,0.6,0.4,1.4,0.4,2.1v0.5C40.5,11.1,40.7,11,41,11L41,11z M20.1,56.8V72h12.1
		l0,0h0c0.1,0,0.2,0,0.2,0c0,0,0.1,0,0.1,0c0.1,0,0.2,0,0.4,0l0,0c0.2,0,0.3,0,0.5,0h6.7V55.5c0-2.6,0.1-2.6,0.8-3.1
		c0.3-0.2,0.8-0.5,1.6-1.5c0.7-0.9,1.3-2,1.7-3.1c0.4-1.1,0.6-2.3,0.6-3.5v-9.4l0,0c0-0.1,0-0.2,0-0.2V16.2c0-0.3-0.1-0.6-0.2-0.8
		l0,0c-0.1-0.3-0.3-0.5-0.5-0.7c-0.2-0.2-0.5-0.4-0.7-0.5l0,0c-0.3-0.1-0.6-0.2-0.9-0.2s-0.6,0.1-0.9,0.2c-0.3,0.1-0.5,0.3-0.8,0.5
		c-0.2,0.2-0.4,0.4-0.5,0.7c-0.1,0.3-0.2,0.5-0.2,0.8l0,0V26v0c0,0.3-0.2,0.5-0.5,0.5h-2.4c-0.3,0-0.5-0.2-0.5-0.5V10.7
		c0-0.3-0.1-0.6-0.2-0.8c-0.1-0.3-0.3-0.5-0.5-0.7l0,0c-0.2-0.2-0.5-0.4-0.8-0.5c-0.3-0.1-0.6-0.2-0.9-0.2s-0.6,0.1-0.9,0.2
		c-0.3,0.1-0.5,0.3-0.8,0.5c-0.2,0.2-0.4,0.4-0.5,0.7c-0.1,0.3-0.2,0.5-0.2,0.8v15.4c0,0.3-0.2,0.5-0.5,0.5h-2.5
		c-0.3,0-0.5-0.2-0.5-0.5V5.5c0-0.3-0.1-0.6-0.2-0.8l0,0C28.3,4.4,28.2,4.2,28,4c-0.2-0.2-0.5-0.4-0.8-0.5c-0.3-0.1-0.6-0.2-0.9-0.2
		c-0.3,0-0.6,0.1-0.9,0.2l0,0c-0.3,0.1-0.5,0.3-0.8,0.5c-0.2,0.2-0.4,0.5-0.5,0.7C24,4.9,24,5.2,24,5.5v20.6c0,0.3-0.2,0.5-0.5,0.5
		H21c-0.3,0-0.5-0.2-0.5-0.5V10.8c0-0.3-0.1-0.6-0.2-0.8c-0.1-0.3-0.3-0.5-0.5-0.7C19.6,9,19.3,8.8,19,8.7c-0.3-0.1-0.6-0.2-0.9-0.2
		s-0.6,0.1-0.9,0.2C17,8.8,16.7,9,16.5,9.2l0,0c-0.2,0.2-0.4,0.4-0.5,0.7c-0.1,0.3-0.2,0.5-0.2,0.8c0,3.7,0,7.9,0,12
		c0,3.7,0,7.3,0,12l-0.3,4.5c0,0.2-0.1,0.3-0.3,0.4l-0.9,0.4c-0.1,0-0.2,0.1-0.3,0.1l0,0c-0.2,0-0.3,0-0.5-0.1s-0.3-0.1-0.4-0.2
		c-0.3-0.2-0.7-0.4-1.1-0.8c-0.4-0.3-0.9-0.7-1.3-1.1c-0.9-0.8-1.8-1.7-2.2-2l0,0c-0.7-0.6-1.3-1-1.9-1.2C6,34.7,5.4,34.6,5,34.8
		c-0.2,0-0.3,0.1-0.5,0.2l0,0c-0.2,0.1-0.3,0.2-0.4,0.3l0,0c-0.1,0.1-0.2,0.3-0.3,0.5c-0.1,0.2-0.2,0.3-0.2,0.5
		c-0.2,0.6-0.1,1.3,0.2,2c0.3,0.7,0.8,1.4,1.7,2.1l0,0l0.1,0.1l0.1,0.1C5.9,41,6.4,41.4,6.9,42c2.7,2.7,7.7,7.7,11.6,10.5
		c0,0,0.1,0.1,0.1,0.1c0.3,0.3,0.5,0.6,0.7,1c0.2,0.3,0.4,0.7,0.5,1.1c0.1,0.3,0.2,0.7,0.2,1C20.2,56,20.2,56.4,20.1,56.8L20.1,56.8
		L20.1,56.8z M44,54.3v17.9c1.4,0.2,2.7,0.7,4,1.3c1.4,0.7,2.6,1.7,3.7,2.8h11.7c0.2-1.4,0.7-2.7,1.3-3.9c0.7-1.4,1.7-2.7,2.8-3.8
		V50.7c-1.4-0.2-2.7-0.7-4-1.3c-1.4-0.7-2.6-1.7-3.7-2.8H48.1c-0.2,1.4-0.7,2.7-1.3,3.9C46.1,51.9,45.2,53.2,44,54.3L44,54.3z
		 M63.1,88.1v-7.9H52.8c-2.4,0-2.5-0.1-3-0.9c-0.2-0.3-0.5-0.8-1.4-1.6c-0.9-0.7-1.9-1.3-2.9-1.7c-1-0.4-2.1-0.6-3.2-0.6h-8.8l0,0
		c-0.1,0-0.1,0-0.2,0h-18c-0.3,0-0.5,0.1-0.8,0.2c-0.2,0.1-0.5,0.3-0.7,0.5c-0.2,0.2-0.4,0.5-0.5,0.8c-0.1,0.3-0.2,0.6-0.2,0.9
		c0,0.3,0.1,0.6,0.2,0.9c0.1,0.3,0.3,0.6,0.5,0.8c0.2,0.2,0.4,0.4,0.7,0.5c0.2,0.1,0.5,0.2,0.8,0.2l0,0h10.1h0
		c0.3,0,0.5,0.2,0.5,0.5V83c0,0.3-0.2,0.5-0.5,0.5H10c-0.3,0-0.5,0.1-0.8,0.2C9,83.8,8.8,84,8.6,84.2c-0.2,0.2-0.4,0.5-0.5,0.8
		C8,85.2,8,85.5,8,85.9c0,0.3,0.1,0.6,0.2,0.9c0.1,0.3,0.3,0.6,0.5,0.8C8.8,87.7,9,87.9,9.3,88c0.2,0.1,0.5,0.2,0.8,0.2h15.3
		c0.3,0,0.5,0.2,0.5,0.5v2.5c0,0.3-0.2,0.5-0.5,0.5H5.2c-0.3,0-0.5,0.1-0.8,0.2l0,0c-0.2,0.1-0.5,0.3-0.7,0.5
		c-0.2,0.2-0.3,0.5-0.5,0.8c-0.1,0.3-0.2,0.6-0.2,0.9s0.1,0.6,0.2,0.9c0.1,0.3,0.2,0.5,0.4,0.7l0,0C4,96,4.2,96.1,4.4,96.3
		c0.2,0.1,0.5,0.2,0.8,0.2h20.1c0.3,0,0.5,0.2,0.5,0.5v2.4c0,0.3-0.2,0.5-0.5,0.5H10.1c-0.3,0-0.5,0.1-0.8,0.2l0,0
		c-0.2,0.1-0.5,0.3-0.6,0.5l0,0c-0.2,0.2-0.4,0.5-0.5,0.8c-0.1,0.3-0.2,0.6-0.2,0.9c0,0.3,0.1,0.6,0.2,0.9c0.1,0.3,0.3,0.6,0.5,0.8
		c0.2,0.2,0.4,0.4,0.6,0.5l0,0c0.2,0.1,0.5,0.2,0.8,0.2c3.5,0,7.6,0,11.7,0c3.6,0,7.3,0,11.7,0l4.2,0.3c0.2,0,0.3,0.1,0.4,0.3
		l0.4,0.9c0,0.1,0.1,0.2,0.1,0.2l0,0c0,0.2,0,0.3-0.1,0.5c0,0.1-0.1,0.3-0.2,0.4c-0.2,0.3-0.4,0.7-0.7,1.1c-0.3,0.4-0.6,0.8-1,1.3
		c-0.7,0.9-1.5,1.8-1.9,2.1l0,0c-0.6,0.7-1,1.3-1.2,1.9c-0.2,0.7-0.2,1.2-0.1,1.7l0,0c0,0.2,0.1,0.3,0.2,0.5
		c0.1,0.2,0.2,0.3,0.3,0.4c0.1,0.1,0.3,0.2,0.4,0.3c0.2,0.1,0.3,0.2,0.5,0.2c0.5,0.1,1.2,0.1,1.8-0.2c0.6-0.3,1.3-0.8,1.9-1.6l0-0.1
		l0.1-0.1l0.1-0.1c0.3-0.4,0.8-0.8,1.2-1.3c2.5-2.7,7.2-7.7,9.8-11.6c0,0,0.1-0.1,0.1-0.1c0.3-0.3,0.6-0.5,0.9-0.7s0.7-0.4,1-0.5
		c0.3-0.1,0.6-0.2,1-0.2c0.3-0.1,0.7-0.1,1-0.1h9.2V89.4l0,0v0c0-0.1,0-0.2,0-0.2l0,0c0,0,0-0.1,0-0.1c0-0.1,0-0.3,0-0.4
		C63.1,88.4,63.1,88.2,63.1,88.1L63.1,88.1z M48.3,34.8v7.9h10.3c2.4,0,2.5,0.1,3,0.9c0.2,0.3,0.5,0.8,1.4,1.6
		c0.9,0.7,1.9,1.3,2.9,1.7c1,0.4,2.1,0.6,3.2,0.6H78l0,0c0.1,0,0.1,0,0.2,0H96c0.3,0,0.5-0.1,0.8-0.2c0.2-0.1,0.5-0.3,0.7-0.5
		c0.2-0.2,0.3-0.5,0.5-0.8c0.1-0.3,0.2-0.6,0.2-0.9c0-0.3-0.1-0.6-0.2-0.9c-0.1-0.3-0.3-0.5-0.5-0.8c-0.2-0.2-0.4-0.4-0.7-0.5
		c-0.2-0.1-0.5-0.2-0.8-0.2l0,0h-9.8h-0.1c-0.3,0-0.5-0.2-0.5-0.5v-2.4c0-0.3,0.2-0.5,0.5-0.5h15.1c0.3,0,0.5-0.1,0.8-0.2
		c0.2-0.1,0.5-0.3,0.6-0.5l0,0c0.2-0.2,0.3-0.5,0.5-0.8c0.1-0.3,0.2-0.6,0.2-0.9c0-0.3-0.1-0.6-0.2-0.9c-0.1-0.3-0.3-0.5-0.5-0.8
		c-0.2-0.2-0.4-0.4-0.7-0.5c-0.2-0.1-0.5-0.2-0.8-0.2h-15c-0.3,0-0.5-0.2-0.5-0.5v-2.5c0-0.3,0.2-0.5,0.5-0.5H106
		c0.3,0,0.5-0.1,0.8-0.2c0.2-0.1,0.5-0.3,0.7-0.5c0.2-0.2,0.3-0.5,0.5-0.8c0.1-0.3,0.2-0.6,0.2-0.9c0-0.3-0.1-0.6-0.2-0.9
		c-0.1-0.3-0.2-0.5-0.4-0.7l0,0c-0.2-0.2-0.4-0.4-0.7-0.5c-0.2-0.1-0.5-0.2-0.8-0.2H86.1c-0.3,0-0.5-0.2-0.5-0.5v-2.5
		c0-0.3,0.2-0.5,0.5-0.5h15c0.3,0,0.5-0.1,0.8-0.2c0.2-0.1,0.5-0.3,0.7-0.5c0.2-0.2,0.3-0.5,0.5-0.8c0.1-0.3,0.2-0.6,0.2-0.9
		c0-0.3-0.1-0.6-0.2-0.9c-0.1-0.3-0.3-0.5-0.5-0.8c-0.2-0.2-0.4-0.4-0.7-0.5c-0.2-0.1-0.5-0.2-0.8-0.2c-3.5,0-7.5,0-11.6,0
		c-3.6,0-7.2,0-11.6,0L73.8,18c-0.2,0-0.3-0.1-0.4-0.3l-0.4-0.9c0-0.1-0.1-0.1-0.1-0.2l0,0c0-0.2,0-0.3,0.1-0.5
		c0-0.1,0.1-0.3,0.2-0.4c0.2-0.3,0.4-0.7,0.7-1.1c0.3-0.4,0.6-0.8,1-1.3c0.7-0.9,1.5-1.8,1.9-2.1l0-0.1c0.6-0.7,1-1.3,1.2-1.9
		C78.1,8.6,78.1,8,78,7.5l0,0c-0.1-0.2-0.1-0.3-0.2-0.5c-0.1-0.2-0.2-0.3-0.3-0.4c-0.1-0.1-0.3-0.2-0.4-0.3
		c-0.2-0.1-0.3-0.2-0.5-0.2c-0.5-0.1-1.2-0.1-1.8,0.2c-0.6,0.3-1.3,0.8-1.9,1.6l0,0.1L72.7,8l-0.1,0.1c-0.3,0.4-0.8,0.8-1.2,1.4
		c-2.5,2.7-7.2,7.7-9.8,11.6c0,0-0.1,0.1-0.1,0.1c-0.3,0.3-0.6,0.5-0.9,0.7c-0.3,0.2-0.7,0.4-1,0.5c-0.3,0.1-0.6,0.2-1,0.2
		c-0.3,0-0.7,0.1-1,0.1h-9.2v10.8l0,0v0c0,0.1,0,0.2,0,0.2l0,0c0,0,0,0.1,0,0.1c0,0.1,0,0.3,0,0.4C48.3,34.5,48.3,34.7,48.3,34.8
		L48.3,34.8z M78,50.8h-6.7v16.5c0,2.6-0.1,2.6-0.8,3.1c-0.3,0.2-0.8,0.5-1.6,1.5c-0.7,0.9-1.3,2-1.7,3.1c-0.4,1.1-0.6,2.3-0.6,3.5
		v9.4l0,0c0,0.1,0,0.2,0,0.2v18.3c0,0.3,0.1,0.6,0.2,0.8l0,0c0.1,0.3,0.3,0.5,0.5,0.7c0.2,0.2,0.5,0.4,0.8,0.5
		c0.3,0.1,0.6,0.2,0.9,0.2s0.6-0.1,0.9-0.2c0.3-0.1,0.6-0.3,0.8-0.5c0.2-0.2,0.4-0.4,0.5-0.7c0.1-0.3,0.2-0.5,0.2-0.8l0,0v-9.8v-0.1
		c0-0.3,0.2-0.5,0.5-0.5h2.4c0.3,0,0.5,0.2,0.5,0.5v15.4c0,0.3,0.1,0.6,0.2,0.8c0.1,0.3,0.3,0.5,0.5,0.7l0,0
		c0.2,0.2,0.5,0.4,0.7,0.5l0,0c0.3,0.1,0.6,0.2,0.9,0.2s0.6-0.1,0.9-0.2l0,0c0.3-0.1,0.5-0.3,0.8-0.5s0.4-0.4,0.5-0.7
		c0.1-0.3,0.2-0.5,0.2-0.8V96.8c0-0.3,0.2-0.5,0.5-0.5h2.5c0.3,0,0.5,0.2,0.5,0.5v20.6c0,0.3,0.1,0.6,0.2,0.8
		c0.1,0.3,0.3,0.5,0.5,0.7c0.2,0.2,0.5,0.4,0.8,0.5c0.3,0.1,0.6,0.2,0.9,0.2c0.3,0,0.6-0.1,0.9-0.2l0,0c0.3-0.1,0.6-0.3,0.8-0.5
		c0.2-0.2,0.4-0.4,0.5-0.7c0.1-0.3,0.2-0.5,0.2-0.8V96.8c0-0.3,0.2-0.5,0.5-0.5h2.4c0.3,0,0.5,0.2,0.5,0.5v15.3
		c0,0.3,0.1,0.6,0.2,0.8c0.1,0.3,0.3,0.5,0.5,0.7c0.2,0.2,0.5,0.4,0.8,0.5c0.3,0.1,0.6,0.2,0.9,0.2s0.6-0.1,0.9-0.2
		c0.3-0.1,0.5-0.3,0.8-0.5s0.4-0.4,0.5-0.7c0.1-0.3,0.2-0.5,0.2-0.8c0-3.7,0-7.9,0-12.1c0-3.7,0-7.3,0-12l0.3-4.5
		c0-0.2,0.1-0.3,0.3-0.4l0.9-0.4c0.1,0,0.2-0.1,0.3-0.1l0,0c0.2,0,0.3,0,0.5,0.1s0.3,0.1,0.4,0.2c0.3,0.2,0.7,0.4,1.1,0.8
		c0.4,0.3,0.8,0.7,1.3,1.1c0.9,0.8,1.8,1.7,2.2,2l0,0c0.7,0.6,1.3,1,1.9,1.2c0.6,0.2,1.2,0.2,1.7,0.1c0.2-0.1,0.3-0.1,0.5-0.2
		c0.2-0.1,0.3-0.2,0.4-0.3l0,0c0.1-0.1,0.2-0.3,0.3-0.4c0.1-0.2,0.2-0.3,0.2-0.5c0.2-0.6,0.1-1.3-0.2-2c-0.3-0.7-0.8-1.4-1.7-2.1
		l0,0l-0.1-0.1l-0.1-0.1c-0.3-0.3-0.8-0.8-1.4-1.3c-2.7-2.7-7.7-7.7-11.6-10.5c0,0-0.1-0.1-0.1-0.1c-0.3-0.3-0.5-0.6-0.7-1
		s-0.4-0.7-0.5-1.1c-0.1-0.3-0.2-0.7-0.2-1c-0.1-0.3-0.1-0.7-0.1-1.1V50.8H79.2l0,0h0c-0.1,0-0.2,0-0.2,0c0,0-0.1,0-0.1,0
		c-0.1,0-0.2,0-0.4,0h0C78.3,50.8,78.1,50.8,78,50.8L78,50.8z"/>
</g>
</svg>
